#!OML:ASF E:\id_vita\Project 1\Capture day 1\Session 1\Male1.ASF
:FULLY-SPECIFIED
:DEGREES
652
root -23.4446 14.6526 -3.28417 543.062 -33.5337 -534.804
lowerback 6.08658 -2.90892 -8.59462
upperback 3.44701 -4.65648 -3.59516
thorax 0.540797 -2.55601 1.31255
lowerneck -5.4774 -1.37316 1.15308
upperneck -23.6336 -3.51094 5.15742
head -6.21319 -3.17373 1.69622
rclavicle 7.15625e-015 6.67916e-014
rhumerus -30.1197 2.81959 -93.1749
rradius 32.1529
rwrist 3.38101
rhand -18.9841 36.1284
rfingers 7.12502
rthumb 7.32046 6.27505
lclavicle 7.15625e-015 6.67916e-014
lhumerus -17.5374 19.2129 75.3546
lradius 18.4195
lwrist -9.69732
lhand -11.4246 48.1337
lfingers 7.12502
lthumb 14.6115 77.599
rfemur -40.295 -5.71193 31.4388
rtibia 55.958
rfoot -21.0871 3.62804
rtoes 27.8816
lfemur -15.2591 15.5112 -16.9875
ltibia 54.4992
lfoot -40.9161 -9.50541
ltoes 37.7194
653
root -23.4542 14.6563 -3.29908 543.123 -33.6064 -534.758
lowerback 6.01627 -2.92599 -8.43886
upperback 3.47145 -4.65874 -3.58654
thorax 0.593302 -2.55635 1.23094
lowerneck -5.65015 -1.37653 1.14315
upperneck -23.6343 -3.55097 5.07915
head -6.18581 -3.19153 1.67107
rclavicle 1.90833e-014 8.26944e-014
rhumerus -30.041 2.84745 -93.1601
rradius 32.0948
rwrist 3.24462
rhand -19.0842 36.0182
rfingers 7.12502
rthumb 7.22384 6.16153
lclavicle 1.90833e-014 8.26944e-014
lhumerus -17.3572 19.2821 75.5019
lradius 18.4814
lwrist -9.87259
lhand -11.4638 48.3708
lfingers 7.12502
lthumb 14.5737 77.8389
rfemur -40.1969 -5.8796 31.548
rtibia 55.6434
rfoot -21.0422 3.34377
rtoes 26.4406
lfemur -15.2863 15.4606 -16.9475
ltibia 54.525
lfoot -41.0014 -9.72784
ltoes 37.7434
654
root -23.4622 14.665 -3.3133 543.736 -33.6973 -535.509
lowerback 5.88408 -2.96114 -9.01831
upperback 3.40939 -4.73811 -3.72641
thorax 0.64574 -2.60878 1.39755
lowerneck -4.37476 -1.42218 1.01279
upperneck -24.9502 -3.60569 5.30135
head -6.8207 -3.29492 1.83731
rclavicle -1.35174e-014 9.54166e-014
rhumerus -30.0388 2.82488 -93.1189
rradius 32.0297
rwrist 3.31749
rhand -19.2144 36.2756
rfingers 7.12502
rthumb 7.09822 6.41467
lclavicle -1.35174e-014 9.54166e-014
lhumerus -17.3234 19.3879 75.6135
lradius 18.5697
lwrist -9.96511
lhand -11.494 48.353
lfingers 7.12502
lthumb 14.5446 77.8232
rfemur -40.3859 -5.98258 30.8377
rtibia 55.6758
rfoot -21.0062 3.80727
rtoes 28.2416
lfemur -15.383 15.2389 -17.7076
ltibia 54.3369
lfoot -40.9908 -9.71269
ltoes 37.911
655
root -23.4673 14.6687 -3.32735 543.328 -33.7677 -535.018
lowerback 6.02813 -2.98749 -8.58548
upperback 3.43988 -4.75422 -3.62197
thorax 0.571139 -2.60507 1.27979
lowerneck -5.25716 -1.2746 1.09922
upperneck -23.9841 -3.40569 5.05883
head -6.36686 -3.13114 1.68572
rclavicle -5.56597e-014 1.59028e-014
rhumerus -30.1535 2.81519 -93.06
rradius 32.1085
rwrist 3.36529
rhand -19.1649 36.3759
rfingers 7.12502
rthumb 7.14595 6.51655
lclavicle -5.56597e-014 1.59028e-014
lhumerus -17.2844 19.1536 75.7006
lradius 18.6222
lwrist -9.79459
lhand -11.8324 49.0371
lfingers 7.12502
lthumb 14.2185 78.5304
rfemur -40.1944 -5.97973 31.3126
rtibia 55.8362
rfoot -21.259 3.27379
rtoes 26.8981
lfemur -15.087 15.1798 -17.1622
ltibia 54.0536
lfoot -40.8842 -9.88575
ltoes 38.3893
656
root -23.4785 14.6707 -3.33355 544.318 -33.7111 -536.254
lowerback 5.76724 -2.97495 -9.56068
upperback 3.3297 -4.79047 -3.87717
thorax 0.665386 -2.64578 1.53281
lowerneck -5.12274 -1.15852 1.22102
upperneck -23.9721 -3.23121 4.98572
head -6.39251 -3.04541 1.63727
rclavicle -4.77083e-015 1.04958e-013
rhumerus -30.1789 2.27258 -92.8596
rradius 32.2058
rwrist 3.93291
rhand -18.9751 36.2635
rfingers 7.12502
rthumb 7.32916 6.41041
lclavicle -4.77083e-015 1.04958e-013
lhumerus -17.3093 18.629 75.8163
lradius 18.7702
lwrist -9.20626
lhand -11.7045 48.7376
lfingers 7.12502
lthumb 14.3418 78.2222
rfemur -40.6827 -6.00974 30.1591
rtibia 56.1624
rfoot -21.3486 3.81429
rtoes 28.5378
lfemur -15.2011 15.0197 -18.4747
ltibia 53.6605
lfoot -40.7412 -9.72541
ltoes 38.7846
